<svg xmlns="http://www.w3.org/2000/svg" xmlns:xlink="http://www.w3.org/1999/xlink">
	<style type="text/css">
		<![CDATA[
		.svg-icon-sprite  { display: none fill: #faa721 }
		.svg-icon-sprite:target { display: block }
		]]>
	</style>

    <!-- CALL ICON START -->
    <svg version="1.1" id="call-icon" xmlns="http://www.w3.org/2000/svg" xmlns:xlink="http://www.w3.org/1999/xlink" x="0px" y="0px" viewBox="0 0 32 32" enable-background="new 0 0 32 32" xml:space="preserve" class="svg-icon-sprite">
        <g>
            <path d="M31.1,25.1c-1.7-1.5-3.6-2.7-5.6-3.8c-1.7-0.8-2.3-0.8-3.5,0.1c-1,0.7-1.6,1.4-2.8,1.1
                c-2.1-1-4-2.4-5.6-4.1c-1.8-1.5-3.2-3.4-4.1-5.6c-0.2-1.1,0.4-1.8,1.1-2.8c0.9-1.2,0.9-1.8,0.1-3.5C9.7,4.5,8.4,2.7,7,1
                C5.7-0.3,5.5,0,4.8,0.2c-0.7,0.3-1.4,0.6-2,1.1c-1,0.6-1.9,1.5-2.4,2.5c-0.5,1-1,2.9,1.8,7.9c2.1,3.8,4.7,7.3,7.8,10.3l0,0l0,0l0,0
                l0,0c3.1,3.1,6.5,5.7,10.3,7.8c5,2.8,6.9,2.2,7.9,1.8c1.1-0.5,1.9-1.4,2.5-2.4c0.4-0.6,0.8-1.3,1.1-2C32,26.6,32.3,26.3,31.1,25.1z
                "/>
        </g>
    </svg>
    <!-- CALL ICON END -->

    <!-- IMG ICON START -->
    <svg version="1.1" id="img-icon" xmlns="http://www.w3.org/2000/svg" xmlns:xlink="http://www.w3.org/1999/xlink" x="0px" y="0px" viewBox="0 0 32 32" enable-background="new 0 0 32 32" xml:space="preserve" class="svg-icon-sprite">
        <g>
            <g id="Icon_feather-image_1_" transform="translate(-3.5 -3.5)">
                <path id="Path_4707_1_" fill="none" stroke="#707070" stroke-width="3.9976" stroke-linecap="round" stroke-linejoin="round" d="
                    M8.5,5.5h22c1.7,0,3,1.3,3,3v22c0,1.7-1.3,3-3,3h-22c-1.7,0-3-1.3-3-3v-22C5.5,6.8,6.8,5.5,8.5,5.5z"/>
                <path id="Path_4708_1_" fill="none" stroke="#707070" stroke-width="3.9976" stroke-linecap="round" stroke-linejoin="round" d="
                    M17,13.6c0,1.2-1,2.3-2.2,2.3c-1.2,0-2.2-1-2.2-2.3c0-1.2,1-2.3,2.2-2.3C16,11.4,17,12.4,17,13.6C17,13.6,17,13.6,17,13.6z"/>
                <path id="Path_4709_1_" fill="none" stroke="#707070" stroke-width="3.9976" stroke-linecap="round" stroke-linejoin="round" d="
                    M33.5,23.4L26,15.9L9.5,32.4"/>
            </g>
        </g>
    </svg>
    <!-- IMG ICON END -->

    <symbol id="large-img-icon" viewBox="0 0 32 32" class="svg-icon-sprite" fill="currentColor">
      <path d="M0,11.8V2.9c0-0.9,0.8-1.7,1.7-1.7l0,0h8.9c0.4,0,0.8,0.4,0.8,0.8v3c0,0.4-0.4,0.8-0.8,0.8H4.6v6.1c0,0.4-0.4,0.8-0.8,0.8
          h-3C0.4,12.6,0,12.2,0,11.8z M20.6,1.9v3c0,0.4,0.4,0.8,0.8,0.8h6.1v6.1c0,0.4,0.4,0.8,0.8,0.8h3c0.4,0,0.8-0.4,0.8-0.8v-9
          c0-0.9-0.7-1.6-1.6-1.6h-9C20.9,1.1,20.6,1.5,20.6,1.9z M21.4,30.9h9c0.9,0,1.6-0.7,1.6-1.6v-9c0-0.4-0.4-0.8-0.8-0.8h-3
          c-0.4,0-0.8,0.4-0.8,0.8v6.1h-6.1c-0.4,0-0.8,0.4-0.8,0.8v3C20.6,30.5,20.9,30.9,21.4,30.9z M11.4,30v-2.9c0-0.4-0.4-0.8-0.8-0.8
          H4.6v-6.1c0-0.4-0.4-0.8-0.8-0.8h-3c-0.4,0-0.8,0.4-0.8,0.8v9c0,0.9,0.7,1.6,1.6,1.6h9C11,30.9,11.4,30.5,11.4,30L11.4,30z"/>
    </symbol>
</svg>
